<svg height="32" width="32" xmlns="http://www.w3.org/2000/svg">
  <path d="M13 18.05V17h-1v-1h1v-1h-1v-1h1v-1h-1v-1h1v-1h-1v-1h1V9h-1V8h1V7h-1V6h1V5h-1V4H8.996C8.446 4 8 4.455 8 4.995v23.01c0 .55.455.995 1 .995h15c.552 0 1-.445 1-.993V11h-4.002C19.894 11 19 10.113 19 8.994V4h-5v1h1v1h-1v1h1v1h-1v1h1v1h-1v1h1v1h-1v1h1v1h-1v1h1v1h-1v2.05c1.147.23 2 1.24 2 2.45 0 1.39-1.12 2.5-2.5 2.5-1.39 0-2.5-1.12-2.5-2.5 0-1.218.86-2.22 2-2.45zM26 10v18.01C26 29.1 25.106 30 24.003 30H8.997C7.89 30 7 29.1 7 27.993V5.007C7 3.897 7.897 3 9.003 3H20l6 7zm-6-5.5v4.49c0 .558.45 1.01.997 1.01H24.7L20 4.5zM13.5 19c-.828 0-1.5.666-1.5 1.5 0 .828.666 1.5 1.5 1.5.828 0 1.5-.666 1.5-1.5 0-.828-.666-1.5-1.5-1.5z" fill="#00bcd4" fill-rule="evenodd"/>
</svg>