<svg height="32" width="32" xmlns="http://www.w3.org/2000/svg">
  <path d="M11.293 19L8 16.2V8.002C8 7.444 8.448 7 9 7h15c.545 0 1 .45 1 1.002V16.2L21.667 19H11.293zm1.176 1l1.782 1.516h4.42L20.476 20H12.47zm9.715.127L20 22l5.923 5.077-.808.808-5.995-5.14-5.224.023-.02-.018-5.99 5.135-.81-.808L13 22l-2.185-1.873L7 16.9v-5.54L4 14v14.006C4 29.106 4.89 30 6.004 30h20.992C28.103 30 29 29.105 29 28.006V14l-3-2.64v5.54l-3.815 3.227zM19.91 6L16.5 3l-3.41 3h6.82zM10 10v1h13v-1H10zm0 3v1h13v-1H10zm0 3v1h13v-1H10z" fill="#00bcd4" fill-rule="evenodd"/>
</svg>