<svg height="32" width="32" xmlns="http://www.w3.org/2000/svg">
  <path d="M16 21h-4v2h4v-2zm1 0h4v2h-4v-2zm-1 5h-4v-2h4v2zm1 0h4v-2h-4v2zm-1-8h-4v2h4v-2zm1 0h4v2h-4v-2zm-1-3h-4v2h4v-2zm1 0h4v2h-4v-2zm2.5-12H9.003C7.897 3 7 3.898 7 5.007v22.986C7 29.1 7.89 30 8.997 30h15.006C25.106 30 26 29.102 26 28.01V10l-6-7h-.5zM19 4H8.996C8.446 4 8 4.455 8 4.995v23.01c0 .55.455.995 1 .995h15c.552 0 1-.445 1-.993V11h-4.002C19.894 11 19 10.113 19 8.994V4zm1 .5v4.49c0 .558.45 1.01.997 1.01H24.7L20 4.5zM11 13v14h11V13H11z" fill="#00bcd4" fill-rule="evenodd"/>
</svg>